<?xml version="1.0" standalone="no"?>
<!DOCTYPE svg PUBLIC "-//W3C//DTD SVG 20010904//EN"
 "http://www.w3.org/TR/2001/REC-SVG-20010904/DTD/svg10.dtd">
<svg version="1.0" xmlns="http://www.w3.org/2000/svg"
 width="800.000000pt" height="800.000000pt" viewBox="0 0 800.000000 800.000000"
 preserveAspectRatio="xMidYMid meet">
<metadata>
Created by potrace 1.14, written by Peter Selinger 2001-2017
</metadata>
<g transform="translate(0.000000,800.000000) scale(0.100000,-0.100000)"
fill="#000000" stroke="none">
<path d="M746 7949 c-158 -23 -284 -129 -336 -285 -20 -58 -20 -88 -18 -2244
l3 -2185 33 -70 c37 -79 84 -133 157 -180 106 -69 23 -65 1454 -65 l1291 0 0
-505 0 -505 -219 0 -219 0 -31 -26 c-37 -31 -42 -79 -12 -115 l19 -24 1115 -3
c729 -1 1124 1 1141 8 31 11 55 60 48 97 -3 14 -18 33 -36 44 -28 17 -52 19
-248 19 l-218 0 0 505 0 505 1293 0 c1386 0 1325 -2 1427 50 61 31 138 107
167 164 56 111 53 -36 53 2308 l0 2168 -25 65 c-60 159 -173 250 -340 275 -87
12 -6413 12 -6499 -1z m6549 -183 c59 -27 117 -88 136 -142 12 -33 14 -394 14
-2189 l0 -2150 -23 -50 c-29 -64 -55 -91 -117 -123 l-50 -27 -3255 0 -3255 0
-50 27 c-62 32 -88 59 -117 123 l-23 50 0 2150 c0 2056 1 2152 18 2197 21 55
97 129 149 145 23 8 1013 11 3278 12 l3245 1 50 -24z m-2795 -5351 l0 -505
-500 0 -500 0 0 505 0 505 500 0 500 0 0 -505z"/>
<path d="M4452 6763 c-18 -16 -1042 -2561 -1042 -2590 0 -6 12 -25 26 -42 30
-36 79 -42 113 -13 26 22 1022 2509 1029 2570 4 35 1 47 -18 67 -28 30 -78 33
-108 8z"/>
<path d="M2759 6336 c-69 -37 -402 -222 -954 -528 -99 -56 -263 -146 -363
-201 -185 -102 -212 -124 -212 -175 0 -34 38 -70 128 -118 48 -26 161 -88 252
-139 91 -51 246 -137 345 -192 274 -152 524 -291 688 -382 153 -85 188 -96
230 -68 62 41 38 106 -60 164 -63 38 -692 387 -863 480 -41 23 -106 59 -145
80 -38 22 -121 68 -182 102 -62 34 -116 67 -119 73 -4 6 2 16 12 22 68 41
1146 640 1284 713 108 58 135 108 89 167 -26 34 -71 34 -130 2z"/>
<path d="M5115 6335 c-55 -54 -25 -109 91 -171 33 -17 111 -60 174 -96 63 -35
144 -80 180 -100 70 -38 501 -277 773 -428 92 -51 167 -98 167 -104 0 -6 -49
-37 -108 -69 -59 -31 -129 -70 -157 -86 -27 -15 -113 -63 -190 -106 -233 -129
-446 -248 -540 -300 -27 -15 -95 -52 -150 -82 -255 -141 -278 -161 -251 -227
17 -42 63 -61 104 -44 15 7 81 42 147 78 240 133 782 434 1035 575 91 51 204
113 251 139 97 52 114 67 122 113 10 51 -26 81 -216 186 -94 52 -254 140 -354
196 -101 56 -265 147 -365 203 -101 55 -264 146 -363 201 -254 141 -265 147
-297 147 -17 0 -39 -10 -53 -25z"/>
<path d="M615 1981 c-22 -10 -66 -30 -97 -45 l-58 -27 0 -185 0 -184 -82 0
c-46 0 -88 -4 -94 -8 -6 -4 -18 -27 -28 -51 -10 -25 -27 -58 -38 -74 -29 -41
-15 -47 125 -47 l117 0 0 -490 c0 -288 4 -490 9 -490 5 0 52 21 105 46 l96 47
0 443 0 443 88 3 87 3 42 85 42 85 -130 3 -129 3 0 224 c0 123 -4 226 -8 229
-4 2 -26 -3 -47 -13z"/>
<path d="M6453 1949 l-83 -41 0 -758 c0 -418 4 -761 9 -764 10 -7 162 66 178
85 8 9 12 88 15 241 l3 227 29 30 30 31 156 0 c158 0 186 -6 212 -44 4 -6 8
-138 8 -293 0 -164 4 -283 9 -283 5 0 53 21 106 47 l97 47 -5 245 c-4 267 -9
296 -60 363 -41 55 -103 86 -196 97 -87 11 -103 22 -70 48 47 37 283 259 286
269 3 9 -150 84 -173 84 -7 0 -98 -90 -204 -200 -116 -121 -200 -200 -211
-200 -18 0 -19 15 -19 405 0 379 -1 405 -17 405 -10 0 -55 -19 -100 -41z"/>
<path d="M2279 1957 c-67 -45 -72 -138 -8 -191 42 -36 65 -40 115 -21 51 19
74 54 74 110 0 102 -99 158 -181 102z"/>
<path d="M7613 1958 c-48 -34 -67 -102 -42 -151 26 -50 51 -67 98 -67 99 0
152 75 113 163 -24 54 -42 68 -95 74 -33 3 -49 -1 -74 -19z"/>
<path d="M2400 1565 c-14 -8 -52 -26 -85 -40 -33 -14 -63 -31 -67 -38 -11 -17
-10 -1079 1 -1096 7 -10 28 -3 102 35 l94 49 3 553 c2 592 5 565 -48 537z"/>
<path d="M2977 1573 c-4 -3 -42 -21 -84 -40 -42 -18 -81 -39 -85 -46 -12 -19
-10 -712 3 -808 19 -141 78 -217 194 -248 63 -17 368 -14 411 4 l36 15 -4
-104 c-5 -160 -16 -166 -278 -166 l-181 0 -25 -57 c-13 -32 -29 -66 -34 -75
-27 -48 -28 -48 254 -48 215 0 265 3 269 14 3 7 21 16 40 20 46 9 110 69 133
126 18 42 19 89 22 733 1 397 -1 687 -6 687 -5 0 -50 -20 -101 -45 l-91 -45
-1 -397 c-1 -219 -4 -409 -8 -423 -4 -14 -22 -35 -40 -47 -31 -21 -46 -23
-160 -23 -69 0 -143 5 -163 11 -69 18 -68 13 -68 519 0 368 -2 450 -13 450 -8
0 -17 -3 -20 -7z"/>
<path d="M4103 1535 l-93 -44 0 -409 c0 -375 2 -415 19 -471 33 -105 81 -150
192 -180 31 -9 107 -12 240 -9 l195 3 60 31 c62 32 104 80 126 144 15 44 24
958 10 972 -6 6 -17 6 -28 -1 -11 -6 -54 -26 -96 -45 l-78 -35 0 -405 c0 -236
-4 -415 -10 -430 -16 -42 -66 -56 -206 -56 -130 0 -194 15 -211 48 -4 9 -9
223 -11 475 -2 251 -6 457 -10 457 -4 -1 -49 -21 -99 -45z"/>
<path d="M5336 1572 c-3 -5 -37 -21 -76 -36 -39 -15 -77 -35 -85 -43 -13 -12
-15 -71 -15 -373 0 -197 5 -394 11 -437 14 -108 47 -173 107 -211 74 -48 118
-55 339 -50 180 4 202 6 244 26 64 32 105 78 129 146 19 56 20 83 20 523 0
254 -4 463 -9 463 -4 0 -49 -20 -100 -45 l-91 -45 -1 -397 c-1 -219 -4 -409
-8 -423 -4 -14 -22 -35 -40 -47 -31 -21 -46 -23 -160 -23 -69 0 -143 5 -163
11 -69 18 -68 13 -68 519 0 385 -2 450 -14 450 -8 0 -17 -4 -20 -8z"/>
<path d="M7670 1536 l-85 -42 -3 -557 -2 -556 42 18 c24 10 69 30 101 44 l57
26 -2 552 c-2 358 -7 553 -13 555 -5 1 -48 -16 -95 -40z"/>
<path d="M1293 1529 c-6 -8 -20 -36 -32 -64 -12 -27 -29 -57 -38 -67 -9 -10
-13 -21 -9 -26 4 -4 96 -9 204 -12 108 -3 205 -9 215 -14 30 -14 47 -61 47
-129 0 -35 -3 -67 -6 -70 -4 -3 -16 0 -28 8 -16 12 -56 15 -182 15 -208 0
-272 -17 -333 -87 -58 -65 -71 -118 -71 -288 0 -180 14 -231 79 -296 26 -27
63 -52 86 -59 23 -8 112 -15 211 -17 141 -4 177 -2 202 11 31 16 42 13 42 -13
1 -44 15 -44 101 -1 46 24 87 48 91 54 4 6 8 193 8 416 0 434 -4 476 -51 545
-13 18 -48 48 -78 67 l-55 33 -196 4 c-156 2 -198 0 -207 -10z m342 -559 c41
-25 45 -40 45 -178 0 -177 -16 -192 -204 -192 -144 0 -183 11 -202 55 -21 51
-19 234 3 280 22 46 47 53 202 54 107 1 128 -2 156 -19z"/>
</g>
</svg>
